{
	"asset":{
		"version":"2.0",
		"generator":"Created using the official Cinema 4D glTF Exporter 1.000x284978"
	},
	"scenes":[{
		"nodes":[0]
	}],
	"nodes":[{
		"name":"Null.1",
		"translation":[-71.8125,
		100.42774200439453,
		24.500152587890626],
		"rotation":[0.0,
		0.0,
		0.0,
		-1.0],
		"scale":[1.0,
		1.0,
		1.0],
		"children":[1,
		2]
	},
	{
		"name":"Null.1-Mat.1",
		"mesh":0
	},
	{
		"name":"Null.1-Mat",
		"mesh":1
	}],
	"meshes":[{
		"name":"Null.1-Mat.1",
		"primitives":[{
			"attributes":{
				"POSITION":1,
				"NORMAL":2,
				"TEXCOORD_0":3
			},
			"indices":0,
			"material":0
		}]
	},
	{
		"name":"Null.1-Mat",
		"primitives":[{
			"attributes":{
				"POSITION":5,
				"NORMAL":6,
				"TEXCOORD_0":7
			},
			"indices":4,
			"material":1
		}]
	}],
	"accessors":[{
		"bufferView":0,
		"type":"SCALAR",
		"componentType":5123,
		"byteOffset":0,
		"count":74256,
		"min":[0],
		"max":[14219]
	},
	{
		"bufferView":1,
		"type":"VEC3",
		"componentType":5126,
		"byteOffset":0,
		"count":14220,
		"min":[-98.34590911865235,
		-119.2612533569336,
		-99.44288635253906],
		"max":[231.18397521972657,
		60.473182678222659,
		57.71066665649414]
	},
	{
		"bufferView":1,
		"type":"VEC3",
		"componentType":5126,
		"byteOffset":12,
		"count":14220,
		"min":[-0.9997813105583191,
		-0.9997813105583191,
		-0.9996563196182251],
		"max":[0.9998437762260437,
		0.9997813105583191,
		0.999625027179718]
	},
	{
		"bufferView":1,
		"type":"VEC2",
		"componentType":5126,
		"byteOffset":24,
		"count":14220,
		"min":[0.0,
		0.0],
		"max":[1.0,
		1.0]
	},
	{
		"bufferView":2,
		"type":"SCALAR",
		"componentType":5123,
		"byteOffset":0,
		"count":17892,
		"min":[0],
		"max":[3095]
	},
	{
		"bufferView":3,
		"type":"VEC3",
		"componentType":5126,
		"byteOffset":0,
		"count":3096,
		"min":[13.640998840332032,
		92.044189453125,
		-86.81719970703125],
		"max":[130.04098510742188,
		106.00504302978516,
		29.611282348632814]
	},
	{
		"bufferView":3,
		"type":"VEC3",
		"componentType":5126,
		"byteOffset":12,
		"count":3096,
		"min":[-1.0,
		-0.9971563220024109,
		-0.999750018119812],
		"max":[1.0,
		0.9971563220024109,
		0.999750018119812]
	},
	{
		"bufferView":3,
		"type":"VEC2",
		"componentType":5126,
		"byteOffset":24,
		"count":3096,
		"min":[0.0,
		0.0],
		"max":[1.0,
		1.0]
	}],
	"bufferViews":[{
		"buffer":0,
		"byteOffset":0,
		"byteLength":148512,
		"target":34963
	},
	{
		"buffer":0,
		"byteOffset":148512,
		"byteLength":455040,
		"target":34962,
		"byteStride":32
	},
	{
		"buffer":1,
		"byteOffset":0,
		"byteLength":35784,
		"target":34963
	},
	{
		"buffer":1,
		"byteOffset":35784,
		"byteLength":99072,
		"target":34962,
		"byteStride":32
	}],
	"buffers":[{
		"uri":"data:application/octet-stream;base64,",
		"byteLength":603552
	},
	{
		"uri":"data:application/octet-stream;base64,",
		"byteLength":134856
	}],
	"materials":[{
		"pbrMetallicRoughness":{
			"baseColorFactor":[1.0,
			1.0,
			1.0,
			1.0],
			"metallicFactor":0.0,
			"roughnessFactor":0.5
		},
		"emissiveFactor":[0.0,
		0.0,
		0.0],
		"alphaMode":"OPAQUE",
		"doubleSided":false,
		"name":"Mat.1"
	},
	{
		"pbrMetallicRoughness":{
			"baseColorFactor":[0.93,
			0.750975,
			0.2139,
			1.0],
			"metallicFactor":0.0,
			"roughnessFactor":0.5
		},
		"emissiveFactor":[0.91,
		0.5914999999999991,
		0.0],
		"alphaMode":"OPAQUE",
		"doubleSided":false,
		"name":"Mat"
	}]
}